<svg xmlns="http://www.w3.org/2000/svg" width="294" height="64" fill="none"><path fill="#00CC14" d="M59.5 16.75V4.5H70v1.75h1.75v3.5H70v1.75h1.75V15H70v1.75H59.5Zm3.5-7h5.25v-3.5H63v3.5ZM63 15h5.25v-3.5H63V15Zm14 1.75V15h-1.75v-1.75H73.5V8h1.75V6.25H77V4.5h7v1.75h1.75V8h-3.5V6.25h-3.5V8H77v5.25h1.75V15h3.5v-1.75h3.5V15H84v1.75h-7Zm15.75 0V6.25h-3.5V4.5h10.5v1.75h-3.5v10.5h-3.5Zm8.75 0V8h1.75V6.25H105V4.5h5.25v1.75H112V8h1.75v8.75h-3.5v-3.5H105v3.5h-3.5Zm3.5-5.25h5.25V8h-1.75V6.25h-1.75V8H105v3.5Zm10.5 5.25V4.5H126v1.75h1.75v3.5H126v1.75h1.75V15H126v1.75h-10.5Zm3.5-7h5.25v-3.5H119v3.5Zm0 5.25h5.25v-3.5H119V15Zm10.5 1.75V4.5h3.5V8h7v1.75h1.75V15H140v1.75h-10.5ZM133 15h5.25V9.75H133V15Zm15.75 1.75V6.25h-3.5V4.5h10.5v1.75h-3.5v10.5h-3.5Zm8.75 0V4.5h12.25v1.75H161v3.5h7v1.75h-7V15h8.75v1.75H157.5Zm-98 22.75V36h1.75v-3.5H63v-7h8.75V36h1.75v3.5H70v-1.75h-7v1.75h-3.5Zm5.25-3.5h3.5v-8.75h-3.5V36Zm8.75 1.75V25.5H77v7h1.75v-1.75h1.75V29h1.75v-3.5h3.5v12.25h-3.5V32.5H80.5v1.75h-1.75V36H77v1.75h-3.5Zm17.5 0V36h-1.75v-1.75H87.5V29h1.75v-1.75H91V25.5h7v1.75h1.75V29h-3.5v-1.75h-3.5V29H91v5.25h1.75V36h3.5v-1.75h3.5V36H98v1.75h-7ZM106.75 29h1.75v1.75h1.75v1.75H112V36h1.75v1.75h-3.5V36h-1.75v-3.5H105v5.25h-3.5V25.5h3.5v5.25h1.75V29Zm7-3.5v1.75H112V29h-3.5v-1.75h1.75V25.5h3.5Zm1.75 12.25V25.5h12.25v1.75H119v3.5h7v1.75h-7V36h8.75v1.75H115.5Zm19.25 0v-10.5h-3.5V25.5h10.5v1.75h-3.5v10.5h-3.5Zm10.5 0V36h-1.75v-1.75h3.5V36h5.25v-3.5h-7v-1.75h-1.75V25.5h3.5v5.25h5.25V25.5h3.5V36H154v1.75h-8.75Zm14 1.75v-1.75H161v-3.5h3.5v3.5h-1.75v1.75h-3.5Zm35-1.75V32.5h-7v-1.75h-1.75V25.5h3.5v5.25h5.25V25.5h3.5v12.25h-3.5Zm10.5 0v-10.5h-3.5V25.5h10.5v1.75h-3.5v10.5h-3.5Zm10.5 0V36h-1.75v-8.75h1.75V25.5H224v1.75h1.75V36H224v1.75h-8.75ZM217 36h5.25v-8.75H217V36Zm10.5 1.75V25.5H238v1.75h-7v3.5h7v1.75h1.75V36H238v1.75h-10.5ZM231 36h5.25v-3.5H231V36Zm10.5 1.75V25.5h3.5V29h3.5v8.75h-7Zm8.75 0V25.5h3.5v12.25h-3.5ZM245 36h1.75v-5.25H245V36ZM59.5 58.75V46.5h12.25v12.25h-3.5v-10.5H63v10.5h-3.5Zm14 0V46.5H84v1.75h1.75v5.25H84v1.75h-7v3.5h-3.5ZM77 53.5h5.25v-5.25H77v5.25Zm12.25 5.25V57H87.5v-8.75h1.75V46.5H98v1.75h1.75V57H98v1.75h-8.75ZM91 57h5.25v-8.75H91V57Zm10.5 3.5V57h1.75v-3.5H105v-7h8.75V57h1.75v3.5H112v-1.75h-7v1.75h-3.5Zm5.25-3.5h3.5v-8.75h-3.5V57Zm10.5 1.75V57h-1.75v-8.75h1.75V46.5H126v1.75h1.75V57H126v1.75h-8.75ZM119 57h5.25v-8.75H119V57Zm10.5 1.75v-3.5h1.75V53.5H133v-7h8.75v12.25h-3.5v-10.5h-3.5V57H133v1.75h-3.5ZM147 46.5v5.25h-1.75V50h-1.75v-3.5h3.5Zm3.5 5.25h1.75v1.75h-1.75v5.25h-1.75V53.5H147v-1.75h1.75V46.5h1.75v5.25Zm5.25-5.25V50H154v1.75h-1.75V46.5h3.5Zm-10.5 7H147v5.25h-3.5v-3.5h1.75V53.5Zm7 5.25V53.5H154v1.75h1.75v3.5h-3.5Zm5.25 0V46.5h3.5v7h1.75v-1.75h1.75V50h1.75v-3.5h3.5v12.25h-3.5V53.5h-1.75v1.75h-1.75V57H161v1.75h-3.5Zm19.25 0v-10.5h-3.5V46.5h10.5v1.75h-3.5v10.5h-3.5Zm8.75 0V46.5h3.5V50h7v1.75h1.75V57H196v1.75h-10.5ZM189 57h5.25v-5.25H189V57ZM.5 12.5h3v3h-3zM.5 15.5h3v3h-3zM.5 18.5h3v3h-3zM.5 21.5h3v3h-3zM.5 24.5h3v3h-3zM.5 27.5h3v3h-3zM.5 30.5h3v3h-3zM.5 33.5h3v3h-3zM.5 36.5h3v3h-3zM.5 39.5h3v3h-3zM.5 42.5h3v3h-3zM.5 45.5h3v3h-3zM.5 48.5h3v3h-3zM33.5 12.5v3h-3v-3zM30.5 12.5v3h-3v-3zM27.5 12.5v3h-3v-3zM24.5 12.5v3h-3v-3zM21.5 12.5v3h-3v-3zM18.5 12.5v3h-3v-3zM15.5 12.5v3h-3v-3zM12.5 12.5v3h-3v-3zM9.5 12.5v3h-3v-3zM6.5 12.5v3h-3v-3zM36.5 15.5v3h-3v-3zM9.5 18.5v3h-3v-3zM9.5 15.5v3h-3v-3zM9.5 21.5v3h-3v-3zM30.5 18.5v3h-3v-3zM30.5 15.5v3h-3v-3zM30.5 21.5v3h-3v-3zM24.5 18.5v3h-3v-3zM24.5 15.5v3h-3v-3zM24.5 21.5v3h-3v-3zM30.5 24.5v3h-3v-3zM27.5 24.5v3h-3v-3zM24.5 24.5v3h-3v-3zM21.5 24.5v3h-3v-3zM18.5 24.5v3h-3v-3zM15.5 24.5v3h-3v-3zM12.5 24.5v3h-3v-3zM9.5 24.5v3h-3v-3zM33.5 33.5v3h-3v-3zM30.5 33.5v3h-3v-3zM27.5 33.5v3h-3v-3zM24.5 33.5v3h-3v-3zM21.5 33.5v3h-3v-3zM18.5 33.5v3h-3v-3zM15.5 33.5v3h-3v-3zM12.5 33.5v3h-3v-3zM9.5 33.5v3h-3v-3zM33.5 36.5v3h-3v-3zM9.5 36.5v3h-3v-3zM33.5 39.5v3h-3v-3zM9.5 39.5v3h-3v-3zM33.5 42.5v3h-3v-3zM9.5 42.5v3h-3v-3zM9.5 45.5v3h-3v-3zM33.5 45.5v3h-3v-3zM36.5 48.5v3h-3v-3zM33.5 48.5v3h-3v-3zM30.5 48.5v3h-3v-3zM27.5 48.5v3h-3v-3zM24.5 48.5v3h-3v-3zM21.5 48.5v3h-3v-3zM18.5 48.5v3h-3v-3zM15.5 48.5v3h-3v-3zM12.5 48.5v3h-3v-3zM9.5 48.5v3h-3v-3zM6.5 48.5v3h-3v-3zM39.5 51.5h-3v-3h3zM39.5 48.5h-3v-3h3zM39.5 45.5h-3v-3h3zM39.5 42.5h-3v-3h3zM39.5 39.5h-3v-3h3zM39.5 36.5h-3v-3h3zM39.5 33.5h-3v-3h3zM39.5 30.5h-3v-3h3zM39.5 27.5h-3v-3h3zM39.5 24.5h-3v-3h3zM39.5 21.5h-3v-3h3z"/></svg>